<svg id="visual" viewBox="0 0 960 540" width="960" height="540" xmlns="http://www.w3.org/2000/svg" xmlns:xlink="http://www.w3.org/1999/xlink" version="1.1"><rect x="0" y="0" width="960" height="540" fill="#001220"></rect><path d="M0 199L22.8 191.7C45.7 184.3 91.3 169.7 137 169.2C182.7 168.7 228.3 182.3 274 179.5C319.7 176.7 365.3 157.3 411.2 153.3C457 149.3 503 160.7 548.8 164.3C594.7 168 640.3 164 686 165.8C731.7 167.7 777.3 175.3 823 173C868.7 170.7 914.3 158.3 937.2 152.2L960 146L960 0L937.2 0C914.3 0 868.7 0 823 0C777.3 0 731.7 0 686 0C640.3 0 594.7 0 548.8 0C503 0 457 0 411.2 0C365.3 0 319.7 0 274 0C228.3 0 182.7 0 137 0C91.3 0 45.7 0 22.8 0L0 0Z" fill="#fa7268"></path><path d="M0 140L22.8 134.8C45.7 129.7 91.3 119.3 137 124C182.7 128.7 228.3 148.3 274 156.2C319.7 164 365.3 160 411.2 151.5C457 143 503 130 548.8 126.5C594.7 123 640.3 129 686 135.8C731.7 142.7 777.3 150.3 823 155.2C868.7 160 914.3 162 937.2 163L960 164L960 0L937.2 0C914.3 0 868.7 0 823 0C777.3 0 731.7 0 686 0C640.3 0 594.7 0 548.8 0C503 0 457 0 411.2 0C365.3 0 319.7 0 274 0C228.3 0 182.7 0 137 0C91.3 0 45.7 0 22.8 0L0 0Z" fill="#ef5f67"></path><path d="M0 142L22.8 142C45.7 142 91.3 142 137 132.7C182.7 123.3 228.3 104.7 274 100.2C319.7 95.7 365.3 105.3 411.2 115C457 124.7 503 134.3 548.8 137C594.7 139.7 640.3 135.3 686 124.3C731.7 113.3 777.3 95.7 823 97.8C868.7 100 914.3 122 937.2 133L960 144L960 0L937.2 0C914.3 0 868.7 0 823 0C777.3 0 731.7 0 686 0C640.3 0 594.7 0 548.8 0C503 0 457 0 411.2 0C365.3 0 319.7 0 274 0C228.3 0 182.7 0 137 0C91.3 0 45.7 0 22.8 0L0 0Z" fill="#e34c67"></path><path d="M0 81L22.8 82.8C45.7 84.7 91.3 88.3 137 90.2C182.7 92 228.3 92 274 93.2C319.7 94.3 365.3 96.7 411.2 94.7C457 92.7 503 86.3 548.8 83C594.7 79.7 640.3 79.3 686 74.7C731.7 70 777.3 61 823 59C868.7 57 914.3 62 937.2 64.5L960 67L960 0L937.2 0C914.3 0 868.7 0 823 0C777.3 0 731.7 0 686 0C640.3 0 594.7 0 548.8 0C503 0 457 0 411.2 0C365.3 0 319.7 0 274 0C228.3 0 182.7 0 137 0C91.3 0 45.7 0 22.8 0L0 0Z" fill="#d53867"></path><path d="M0 66L22.8 60.8C45.7 55.7 91.3 45.3 137 41.8C182.7 38.3 228.3 41.7 274 43C319.7 44.3 365.3 43.7 411.2 45C457 46.3 503 49.7 548.8 47.3C594.7 45 640.3 37 686 36.2C731.7 35.3 777.3 41.7 823 45.3C868.7 49 914.3 50 937.2 50.5L960 51L960 0L937.2 0C914.3 0 868.7 0 823 0C777.3 0 731.7 0 686 0C640.3 0 594.7 0 548.8 0C503 0 457 0 411.2 0C365.3 0 319.7 0 274 0C228.3 0 182.7 0 137 0C91.3 0 45.7 0 22.8 0L0 0Z" fill="#c62368"></path></svg>